<?xml version="1.0" encoding="UTF-8"?>
<svg width="24px" height="24px" viewBox="0 0 24 24" version="1.1" xmlns="http://www.w3.org/2000/svg" xmlns:xlink="http://www.w3.org/1999/xlink">
    <title>Icon-Architecture/16/Arch_AWS-Resource-Explorer_16</title>
    <defs>
        <linearGradient x1="0%" y1="100%" x2="100%" y2="0%" id="linearGradient-1">
            <stop stop-color="#B0084D" offset="0%"></stop>
            <stop stop-color="#FF4F8B" offset="100%"></stop>
        </linearGradient>
    </defs>
    <g id="Icon-Architecture/16/Arch_AWS-Resource-Explorer_16" stroke="none" stroke-width="1" fill="none" fill-rule="evenodd">
        <g id="Icon-Architecture-BG/16/Management-Governance" fill="url(#linearGradient-1)">
            <rect id="Rectangle" x="0" y="0" width="24" height="24"></rect>
        </g>
        <g id="Icon-Service/16/AWS-Resource-Explorer_16" transform="translate(4.000000, 4.000000)" fill="#FFFFFF">
            <path d="M14.709,14.7185 C14.558,14.8695 14.381,14.9705 14.225,14.9945 C14.069,15.0185 13.995,14.9615 13.955,14.9215 L11.185,12.0835 C11.523,11.8295 11.821,11.5305 12.075,11.1935 L14.915,13.9535 C14.97,14.0075 14.995,14.0725 14.995,14.1555 C14.995,14.3285 14.889,14.5395 14.709,14.7185 L14.709,14.7185 Z M8,14.7525 L8,12.9495 C8.165,12.9685 8.326,12.9995 8.495,12.9995 C9.14,12.9995 9.75,12.8575 10.305,12.6125 L11.131,13.4585 L8,14.7525 Z M1,4.3085 L4.683,6.1505 C4.258,6.8375 4,7.6395 4,8.5045 C4,10.4565 5.258,12.1045 7,12.7245 L7,14.7415 L1,12.1705 L1,4.3085 Z M7.5,1.0435 L13.305,3.5315 L10.897,4.7185 C10.201,4.2755 9.38,4.0095 8.495,4.0095 C7.249,4.0095 6.12,4.5205 5.305,5.3435 L1.688,3.5345 L7.5,1.0435 Z M8.495,11.9995 C6.568,11.9995 5,10.4315 5,8.5045 C5,6.5775 6.568,5.0095 8.495,5.0095 C10.422,5.0095 11.99,6.5775 11.99,8.5045 C11.99,10.4315 10.422,11.9995 8.495,11.9995 L8.495,11.9995 Z M12.604,10.3125 C12.849,9.7585 12.99,9.1485 12.99,8.5045 C12.99,7.3065 12.512,6.2215 11.745,5.4155 L14,4.3035 L14,11.6695 L12.604,10.3125 Z M15.617,13.2405 L15,12.6415 L15,3.4995 C15,3.2995 14.881,3.1185 14.697,3.0405 L7.697,0.0405 C7.57,-0.0135 7.43,-0.0135 7.303,0.0405 L0.303,3.0405 C0.119,3.1185 -8.8817842e-16,3.2995 -8.8817842e-16,3.4995 L-8.8817842e-16,12.4995 C-8.8817842e-16,12.6995 0.119,12.8805 0.303,12.9595 L7.303,15.9595 C7.366,15.9865 7.433,15.9995 7.5,15.9995 C7.564,15.9995 7.63,15.9875 7.691,15.9615 L11.883,14.2295 L13.244,15.6245 C13.49,15.8705 13.808,15.9995 14.154,15.9995 C14.228,15.9995 14.302,15.9945 14.377,15.9825 C14.744,15.9265 15.112,15.7285 15.416,15.4255 C15.784,15.0575 15.995,14.5945 15.995,14.1555 C15.995,13.8045 15.866,13.4895 15.617,13.2405 L15.617,13.2405 Z" id="Fill-8"></path>
        </g>
    </g>
</svg>